# xmcd
#
# Track frame offsets: 
#        150
#        14743
#        28003
#        42029
#        55906
#        69846
#        82422
#        94645
#        109364
#        122586
#        136365
#        148936
#        162308
#        177252
#        191124
#        205119
#        217579
#        230137
#        243919
#        261536
#        277335
#        292294
#        307810
#        322101
#        334416
#        347160
#
# Disc length: 4779 seconds
#
# Revision: 1
# Processed by: cddbd v1.5.2PL0 Copyright (c) Steve Scherf et al.
# Submitted via: ExactAudioCopyFreeDBPlugin 1.0
#
DISCID=a312a91a
DTITLE=Various Artist - Really The Blues A Blues History - Vol 1 (189
DTITLE=3-1929) [Cd2]
DYEAR=2010
DGENRE=Blues
TTITLE0=Kid Ory 1922 - Society Blues
TTITLE1=Nick Lucas 1922 - Teasin The Frets
TTITLE2=Marion Harris 1923 - I Ain't Got Nobody
TTITLE3=Ethel Waters - Midnight Blues
TTITLE4=Sophie Tucker - Aggravatin Papa
TTITLE5=JR Morton 1923 - New Orleans Joys
TTITLE6=Sylvester Weaver 1923 - Guitar Blues
TTITLE7=JR Morton 1923 - London Blues
TTITLE8=Noble Sissle 1923 - Waitin For The Evening Mail
TTITLE9=James P Johnson 1923 - Bleeding Hearted Blues
TTITLE10=King Oliver, Baby Dodds, Jimmy Noone 1923 - London Café Blues
TTITLE11=Homer Rodheaver 1923 - The Gospel Train Am Comin
TTITLE12=Bessie Smith 1923 - Any Woman's Blues
TTITLE13=Kentucky Trio 1923 - God's Gonna Set This World On Fire
TTITLE14=Eddie Cantor 1924 - If You Do What You Do
TTITLE15=Old Southern Jug Band 1924 - Hatchet Head  Blues
TTITLE16=Ed Andrews 1924 - Time Ain't Gonna Make Me Stay
TTITLE17=Johny Bayersdorfer 1924 - Waffle's Man Call
TTITLE18=Paul Whitmeman 1924 - Rhapsody In Blue
TTITLE19=Levitsch 1924 - I've Got A Cross Eyed Papa
TTITLE20=Rosa Henderson 1924 - Barrel House Blues
TTITLE21=Zez Confrey 1924 - Mississippi Shivers
TTITLE22=Butterbeans And Sussie 1924 - Kiss Me Sweet
TTITLE23=Bix 1924 - Toddlin Blues
TTITLE24=Alberta Hunter 1924 - Nobody Knows The Way I Feel This Mornin
TTITLE24=g
TTITLE25=Lovie Austin 1924 - Steppin On The Blues
EXTD=
EXTT0=
EXTT1=
EXTT2=
EXTT3=
EXTT4=
EXTT5=
EXTT6=
EXTT7=
EXTT8=
EXTT9=
EXTT10=
EXTT11=
EXTT12=
EXTT13=
EXTT14=
EXTT15=
EXTT16=
EXTT17=
EXTT18=
EXTT19=
EXTT20=
EXTT21=
EXTT22=
EXTT23=
EXTT24=
EXTT25=
PLAYORDER=
